PathFileType	4	(X/Y/Z)	Patient4_TMGait_0pt5_02_right_01.trc.trc
DataRate	CameraRate	NumFrames	NumMarkers	Units	OrigDataRate	OrigDataStartFrame	OrigNumFrames
76.086956521739	76.086956521739	5	33	mm	76.086956521739	89	       141
Frame#	Time	Sacral			L.Shoulder			Chest			R.Shoulder			Neck			R.ASIS			L.ASIS			R.Thigh.Superior			R.Thigh.Lateral			R.Thigh.Inferior			R.Patella			L.Thigh.Superior			L.Thigh.Lateral			L.Thigh.Inferior			L.Patella			L.Shank.Superior			L.Shank.Lateral			L.Shank.Inferior			R.Shank.Superior			R.Shank.Lateral			R.Shank.Inferior			R.Heel			R.Midfoot.Superior			R.Midfoot.Lateral			R.Toe			L.Heel			L.Midfoot.Lateral			L.Midfoot.Superior			L.Toe			L.Elbow			L.Wrist			R.Elbow			R.Wrist			
		X1	Y1	Z1	X2	Y2	Z2	X3	Y3	Z3	X4	Y4	Z4	X5	Y5	Z5	X6	Y6	Z6	X7	Y7	Z7	X8	Y8	Z8	X9	Y9	Z9	X10	Y10	Z10	X11	Y11	Z11	X12	Y12	Z12	X13	Y13	Z13	X14	Y14	Z14	X15	Y15	Z15	X16	Y16	Z16	X17	Y17	Z17	X18	Y18	Z18	X19	Y19	Z19	X20	Y20	Z20	X21	Y21	Z21	X22	Y22	Z22	X23	Y23	Z23	X24	Y24	Z24	X25	Y25	Z25	X26	Y26	Z26	X27	Y27	Z27	X28	Y28	Z28	X29	Y29	Z29	X30	Y30	Z30	X31	Y31	Z31	X32	Y32	Z32	X33	Y33	Z33	

89	2.396571428571	553.737036166925	1005.032432843530	481.283474599580	709.107244228704	1426.124252621315	280.132508974201	826.965894423524	1359.906726379972	432.592165689791	760.846993865350	1442.417721640368	610.823815217735	724.857237407081	1491.739430439818	427.204963560117	783.996473078215	936.593572945755	586.684566556233	760.285306410983	957.628728449046	313.416246540156	822.328072796681	732.321705304244	560.439975904993	743.700710362392	622.502747497885	623.968987656481	820.956887545663	564.859355447125	545.683769453894	812.547910333438	455.975653657019	562.696636448275	827.889636578185	761.543752977293	345.810161054144	754.587579580360	637.932665203412	285.272337842421	847.006185186277	569.540230021737	349.540382479974	854.970960404139	498.688611817742	357.936981426838	834.341747560233	425.061471161709	348.629912069487	755.350735349235	303.821051829670	295.406551040191	815.812016294846	197.328788679799	367.459796040356	738.778937092435	386.921175625449	566.768607034805	623.073847209237	337.225948649360	628.534906360568	612.536067842002	231.025334836405	573.327101455715	412.256970195920	148.210092860940	547.768279711596	588.188527904056	117.579463819662	582.384994419948	482.085656537829	101.391550456756	620.259874027977	669.600915914141	32.115692786387	609.324120774146	697.583304271843	37.178462365458	406.231560407384	774.153149521296	34.905998964037	327.390336679899	855.203143645391	97.138437518085	356.123086755537	984.832617484664	48.890019897125	333.062681840369	612.509729861281	1079.970266918311	184.780756005559	668.306915946707	823.719204841132	175.620693106838	829.496864150249	1103.051233973119	723.421591661315	1049.463401603775	1035.737701929566	614.913360693013	
90	2.409714285714	552.614171061237	1004.831962302306	478.336573596017	710.347373970573	1425.882414896071	277.660028881337	826.731569005825	1359.786441050113	431.323984125231	758.973294820771	1442.623360544365	608.862942623021	724.772203647806	1491.746398927679	424.717533621893	782.494019100186	936.593901264050	584.993809257452	760.122751288889	957.876490477421	311.730124533682	826.047358806543	734.784875952348	558.862561735608	750.387572820503	623.347728076529	622.750615366290	829.739250697337	567.037643950475	545.059135766851	822.769884729349	456.989626761973	562.715606033324	826.446791587412	760.671707330617	342.968505206751	752.037236362937	637.730558730745	283.273653542801	843.973457907459	568.796409570160	347.503328459843	851.424311225029	497.987669289906	356.149072749000	830.388053066665	424.388226041578	347.182354066971	750.745833077289	303.465018928066	294.186656623841	810.164564235223	196.858578770079	366.851816752672	747.287836352216	388.540121641344	566.369885039967	629.605765348199	342.532481223543	627.492625118944	616.539369865012	236.355323536149	572.830731948602	414.287030289415	161.637274066173	546.232792154962	588.575280254631	122.465810011223	582.339733174294	481.252424371179	111.391139155831	619.100019358666	664.923601488883	31.610644662675	609.638060096968	690.999543971888	37.163355224819	406.155182626592	767.556618660638	34.811910922957	327.280874327091	848.727120091306	96.894100897923	356.033878833602	978.343141900376	48.423317592711	333.018155394981	616.754893193366	1079.204862233540	180.381780456023	678.596060159172	824.181413398873	171.687281805807	819.517046749257	1101.660092897111	723.089025873016	1037.428560950167	1019.400873725447	619.936831215731	
91	2.422857142857	551.464293360364	1004.558642563606	475.528916685190	711.425824694921	1425.696779133120	275.475102222761	826.372074851941	1359.663512659806	430.276535664522	756.990142102018	1442.666131679632	607.197830468532	724.605676253010	1491.746224435677	422.569113371573	780.945778463060	936.601762122918	583.304150602183	759.840934532300	958.091182016295	310.060732602387	829.556184629132	737.469477241962	557.216335881988	756.945710917357	624.523462556308	621.573745574377	838.217886094554	569.636390112287	544.365150260960	832.836691021455	458.533447860406	562.537164678893	825.035809595614	759.878541677062	340.236501421230	749.551654163980	637.522478375176	281.382256645798	841.052949079438	568.072044760581	345.524191737377	848.009915505911	497.289397064307	354.433170184030	826.537307409813	423.711173448601	345.819997279008	746.222143167122	303.140057917502	293.027327018625	804.576856997887	196.393403732742	366.266172811795	755.838426347891	390.542285710807	565.853308408633	636.419074140806	347.965653209494	626.416171525778	621.013920487617	241.873800386700	572.179908239812	417.254594821631	174.723424934127	544.476963379758	589.653873361434	127.726684798951	582.144120942988	481.373114156668	121.468733484207	617.819592553489	661.196657253113	31.493332629031	610.054828229525	684.427312070861	37.163487568322	406.067364621754	760.973842749901	34.730622651267	327.170413494538	842.269834350781	96.662841250254	355.940781589852	971.867147240381	47.946059052100	332.967898611142	621.308066576587	1078.476251911154	176.027954421933	689.190239412612	824.834111924009	167.706827622332	809.221151108612	1100.169009878776	722.728064077095	1024.021530211216	1002.556617419565	625.615844206649	
92	2.436000000000	550.295287205169	1004.289394660705	472.860686726376	712.323439058372	1425.633014151596	273.583592803650	825.892184503196	1359.594367418686	429.432778619362	754.936041622678	1442.597697897267	605.817783212518	724.358034072161	1491.792047360008	420.768449270988	779.359237300496	936.697639039789	581.634829712906	759.466818391920	958.303446701661	308.408990119986	832.761656297146	740.374907505213	555.511784819979	763.260801638502	626.053041959923	620.427555446930	846.258912113042	572.665494955529	543.573485649597	842.639086159821	460.617737078151	562.152432860271	823.677541561687	759.176155031345	337.673183303525	747.119937778657	637.318057785879	279.663633853746	838.215014462733	567.366222974085	343.687334211046	844.693206844940	496.603255151820	352.892851137034	822.758153844579	423.048554378424	344.616392069756	741.760024369824	302.867896495862	291.988077038291	799.034242597901	195.948963374280	365.744403325840	764.337639657941	392.922234065040	565.225554087439	643.433517284394	353.414504027545	625.311287044290	625.963738028540	247.434835204739	571.404674542791	421.136878160291	187.017736917577	542.572960736735	591.543440188591	133.165463979072	581.795588846948	482.564969136182	131.254688788525	616.471798265605	658.730313868116	31.882142769080	610.547870645489	677.862655963505	37.178169471056	405.970158612829	754.401481459710	34.667507080391	327.063095665129	835.819235808668	96.456662072102	355.851921899706	965.394239211027	47.490852008945	332.910680675548	626.190505211712	1077.852609380723	171.763393821631	700.076429326337	825.748203472364	163.727727706809	798.666102125265	1098.656984768124	722.338505632044	1009.171199316761	985.404720307196	631.911659145385	
93	2.449142857143	549.108339514886	1004.095713126855	470.326131849080	713.043092269414	1425.745672590274	271.977591393187	825.302607980479	1359.627962459683	428.775107348572	752.839106758310	1442.471323904931	604.701207735100	724.030276144800	1491.928399852750	419.308128292451	777.741415271437	936.952385906183	580.017364735407	759.029119577385	958.537610066249	306.789665458792	835.597550760146	743.489380508356	553.774446725852	769.243721263028	627.938133072366	619.308080588919	853.764072596091	576.110934873872	542.671143561002	852.089680445336	463.232306130031	561.570085562497	822.363313198101	758.558491505103	335.342868125402	744.719069523829	637.127085430726	278.166116678448	835.405404304436	566.676173828444	342.072314586277	841.409819747291	495.934904526240	351.612573615326	818.995917057860	422.416083951543	343.628543072380	737.324805851233	302.659926754323	291.113098966163	793.512726928589	195.538475069160	365.321220852527	772.718603328359	395.653095593819	564.505980211918	650.592869505489	358.745643513027	624.190120030647	631.412595176998	252.868943201890	570.551074126835	425.908372724114	198.076963442986	540.623247891660	594.386793256222	138.556041319052	581.319939320405	484.944671330970	140.357751363429	615.125616835248	657.847298645671	32.837572476828	611.076935237646	671.299490316963	37.205187862916	405.867037149237	747.834544505968	34.624813680103	326.962951313934	829.363866033282	96.282757076172	355.774985564128	958.914055873752	47.081611360683	332.848067690924	631.390872246412	1077.403251980899	167.626255895135	711.246938868997	827.003999571519	159.801485012594	787.918367714797	1097.213242920852	721.923267690553	992.836877495374	968.194818442529	638.753965352690	
